<svg width="215" height="987" viewBox="0 0 215 987" fill="none" xmlns="http://www.w3.org/2000/svg">
<path d="M40.2354 987L41.1559 750" stroke="#FFC700" stroke-width="3"/>
<path d="M51.2905 987L51.7418 756.544" stroke="#FFC700" stroke-width="3"/>
<path d="M45.7891 987L46.2188 753.739" stroke="#FFC700" stroke-width="3"/>
<path d="M57.2646 987L57.2646 758.881" stroke="#FFC700" stroke-width="3"/>
<path d="M52.5001 284L51.5006 339.599" stroke="#FFC700" stroke-width="3"/>
<path d="M46.0008 281.226L45.5005 339.599" stroke="#FFC700" stroke-width="3"/>
<path d="M40.5 277L39.5005 339.599" stroke="#FFC700" stroke-width="3"/>
<path d="M59 286.5L58.0008 338.821" stroke="#FFC700" stroke-width="3"/>
<path d="M68.0005 238.632L57 230.241" stroke="#FFC700" stroke-width="3"/>
<path d="M66 244.554L51.5 233.696" stroke="#FFC700" stroke-width="3"/>
<path d="M62.5005 250.477L45 236.5" stroke="#FFC700" stroke-width="3"/>
<path d="M61.0005 256.893L39.5 239.5" stroke="#FFC700" stroke-width="3"/>
<path d="M67.5005 280.811L58.5005 287.721" stroke="#FFC700" stroke-width="3"/>
<path d="M66.5005 274.395L52.0005 285.253" stroke="#FFC700" stroke-width="3"/>
<path d="M62.5005 268.966L45.5005 281.798" stroke="#FFC700" stroke-width="3"/>
<path d="M59.5005 263.043L40.0005 277.85" stroke="#FFC700" stroke-width="3"/>
<path d="M20.1406 -11.9998L20.1406 987" stroke="#FFC700" stroke-width="3"/>
<path d="M8.104 -11.9998L8.104 987" stroke="#FFC700" stroke-width="3"/>
<path d="M14.0938 -11.9998L14.0937 987" stroke="#FFC700" stroke-width="3"/>
<path d="M2 -11.9998L2 987" stroke="#FFC700" stroke-width="3"/>
<path d="M39.5 682L39.5 339" stroke="#FFC700" stroke-width="3"/>
<path d="M51.5098 682L51.5098 339" stroke="#FFC700" stroke-width="3"/>
<path d="M45.5332 682L45.5332 339.5" stroke="#FFC700" stroke-width="3"/>
<path d="M58 679.436L58 338" stroke="#FFC700" stroke-width="3"/>
<path d="M40.2203 240L40.2202 -11.9997" stroke="#FFC700" stroke-width="3"/>
<path d="M52 234.502L51.748 -11.9998" stroke="#FFC700" stroke-width="3"/>
<path d="M45.7842 236.775L45.7842 -11.9998" stroke="#FFC700" stroke-width="3"/>
<path d="M57.5 231.295L56.9122 -11.9998" stroke="#FFC700" stroke-width="3"/>
<path d="M60.1728 256.399L215 256.399" stroke="#FFC700" stroke-width="3"/>
<path d="M65 244.164L215 244.164" stroke="#FFC700" stroke-width="3"/>
<path d="M61.5 249.877L215 250.077" stroke="#FFC700" stroke-width="3"/>
<path d="M67 238H215" stroke="#FFC700" stroke-width="3"/>
<path d="M58.5 730.262L214.873 730.262" stroke="#FFC700" stroke-width="3"/>
<path d="M64.5 718.026L214.873 718.026" stroke="#FFC700" stroke-width="3"/>
<path d="M61 723.938L215 723.938" stroke="#FFC700" stroke-width="3"/>
<path d="M66 712H214.873" stroke="#FFC700" stroke-width="3"/>
<path d="M66.5 281L215 282.061" stroke="#FFC700" stroke-width="3"/>
<path d="M61.5 269L214.923 269.829" stroke="#FFC700" stroke-width="3"/>
<path d="M65.5 274.5L214.923 275.741" stroke="#FFC700" stroke-width="3"/>
<path d="M58.5 263.31L214.923 263.803" stroke="#FFC700" stroke-width="3"/>
<path d="M66 754.5L214.733 755.923" stroke="#FFC700" stroke-width="3"/>
<path d="M61 743L214.798 743.691" stroke="#FFC700" stroke-width="3"/>
<path d="M65 748.5L214.798 749.602" stroke="#FFC700" stroke-width="3"/>
<path d="M59.2705 737.171L214.797 737.665" stroke="#FFC700" stroke-width="3"/>
<path d="M52.0337 708.714L51.5 675" stroke="#FFC700" stroke-width="3"/>
<path d="M45.5664 712.169L45.5664 674.5" stroke="#FFC700" stroke-width="3"/>
<path d="M40.0342 716.118L39.5 675" stroke="#FFC700" stroke-width="3"/>
<path d="M58.5337 706.247L58 672" stroke="#FFC700" stroke-width="3"/>
<path d="M67.0337 712.169L58.0337 705.26" stroke="#FFC700" stroke-width="3"/>
<path d="M65.5 718.407L51.5337 707.727" stroke="#FFC700" stroke-width="3"/>
<path d="M62.0337 724.015L45.0337 711.182" stroke="#FFC700" stroke-width="3"/>
<path d="M59.5 730.253L39.5337 715.131" stroke="#FFC700" stroke-width="3"/>
<path d="M67 754.437L56.5 761" stroke="#FFC700" stroke-width="3"/>
<path d="M66 748.021L51 758.5" stroke="#FFC700" stroke-width="3"/>
<path d="M62 742.592L45.5342 755.83" stroke="#FFC700" stroke-width="3"/>
<path d="M60 736.669L40.5 752" stroke="#FFC700" stroke-width="3"/>
</svg>
