<svg width="216" height="1080" viewBox="0 0 216 1080" fill="none" xmlns="http://www.w3.org/2000/svg">
<path d="M52.0005 562.001L52.0005 590" stroke="#FFC700" stroke-width="3"/>
<path d="M65.0005 553.001L110.5 553.001" stroke="#FFC700" stroke-width="3"/>
<path d="M46 559L46.0003 584" stroke="#FFC700" stroke-width="3"/>
<path d="M61.501 547.607L110.5 547.606" stroke="#FFC700" stroke-width="3"/>
<path d="M40.5 555L40 578" stroke="#FFC700" stroke-width="3"/>
<path d="M58.5005 541.501L110.5 541.501" stroke="#FFC700" stroke-width="3"/>
<path d="M58.0005 565.001L57.9999 573" stroke="#FFC700" stroke-width="3"/>
<path d="M66.0005 559.002L110.5 559.001" stroke="#FFC700" stroke-width="3"/>
<path d="M52 512.501L52 486.001" stroke="#FFC700" stroke-width="3"/>
<path d="M65 522.001L110.5 522.001" stroke="#FFC700" stroke-width="3"/>
<path d="M45.5327 516.001L46 492.001" stroke="#FFC700" stroke-width="3"/>
<path d="M61 528.07L110.5 528.07" stroke="#FFC700" stroke-width="3"/>
<path d="M40 520.001L40.0005 498.001" stroke="#FFC700" stroke-width="3"/>
<path d="M58 534.001L110.5 534.001" stroke="#FFC700" stroke-width="3"/>
<path d="M58.5 510.001L58.5 480.001" stroke="#FFC700" stroke-width="3"/>
<path d="M66 516.001L110.5 516.001" stroke="#FFC700" stroke-width="3"/>
<path d="M67 516.501L58 509.029" stroke="#FFC700" stroke-width="3"/>
<path d="M66 522.501L51.5 511.501" stroke="#FFC700" stroke-width="3"/>
<path d="M62 528.001L45 515.001" stroke="#FFC700" stroke-width="3"/>
<path d="M59 534.001L39.5 519.001" stroke="#FFC700" stroke-width="3"/>
<path d="M67.0005 558.501L57.5005 566.001" stroke="#FFC700" stroke-width="3"/>
<path d="M66.0005 552.501L51.5005 563.001" stroke="#FFC700" stroke-width="3"/>
<path d="M62.5005 547.231L45.5005 560.231" stroke="#FFC700" stroke-width="3"/>
<path d="M59.5005 541.231L40.0005 556.231" stroke="#FFC700" stroke-width="3"/>
<path d="M20.0166 0L20.0166 1080" stroke="#FFC700" stroke-width="3"/>
<path d="M8.13721 6.10352e-05L8.13721 1080" stroke="#FFC700" stroke-width="3"/>
<path d="M14.0488 6.10352e-05L14.0488 1080" stroke="#FFC700" stroke-width="3"/>
<path d="M2 0L2.00008 1080" stroke="#FFC700" stroke-width="3"/>
<path d="M40 1080V578" stroke="#FFC700" stroke-width="3"/>
<path d="M52 1080V590" stroke="#FFC700" stroke-width="3"/>
<path d="M46 1080L46 584" stroke="#FFC700" stroke-width="3"/>
<path d="M58 1080L58 573.001" stroke="#FFC700" stroke-width="3"/>
<path d="M40 498L40 -3.83844e-06" stroke="#FFC700" stroke-width="3"/>
<path d="M52 486L52 1.41883e-05" stroke="#FFC700" stroke-width="3"/>
<path d="M46 492L46 -1.16679e-06" stroke="#FFC700" stroke-width="3"/>
<path d="M58.4727 479.979L57.6128 0.0015243" stroke="#FFC700" stroke-width="3"/>
<path d="M216 510L166.589 510L162.245 516L110.5 516" stroke="#FFC700" stroke-width="3"/>
<path d="M215.983 522.047L168.76 522.047L164.608 528.071L110.5 528.071" stroke="#FFC700" stroke-width="3"/>
<path d="M215.983 516.024L167.705 516.024L163.46 522.047L110.5 522.047" stroke="#FFC700" stroke-width="3"/>
<path d="M215.983 528.071L169.885 528.071L165.831 534.094L110.5 534.094" stroke="#FFC700" stroke-width="3"/>
<path d="M216 565L166.828 565L162.504 559.004L110.5 559.004" stroke="#FFC700" stroke-width="3"/>
<path d="M216 553.009L168.997 553.009L164.865 547.5L110.5 547.5" stroke="#FFC700" stroke-width="3"/>
<path d="M216 559.005L167.947 559.004L163.722 553.009L110.5 553.009" stroke="#FFC700" stroke-width="3"/>
<path d="M216 547.014L170.116 547.014L166.263 541.5L110.5 541.5" stroke="#FFC700" stroke-width="3"/>
</svg>
