<svg width="60" height="118" viewBox="0 0 60 118" fill="none" xmlns="http://www.w3.org/2000/svg">
<path d="M2.00098 0.0219727L2.00099 66.3622L8.09998 72.1949L8.09998 117.385" stroke="#FFC700" stroke-width="3"/>
<path d="M14.1987 0.0219727L14.1987 63.435L20.2977 69.0103L20.2977 112.206" stroke="#FFC700" stroke-width="3"/>
<path d="M8.1001 0.0219727L8.10011 64.8524L14.1991 70.5523L14.1991 114.714" stroke="#FFC700" stroke-width="3"/>
<path d="M20.2979 0.0219727L20.2979 61.9251L26.3969 67.3677L26.3969 109.535" stroke="#FFC700" stroke-width="3"/>
<path d="M57.689 0L57.689 66.0305L51.6184 71.836L51.6184 116.815" stroke="#FFC700" stroke-width="3"/>
<path d="M45.5479 0L45.5478 63.1169L39.4773 68.6662L39.4773 111.66" stroke="#FFC700" stroke-width="3"/>
<path d="M51.6187 0L51.6186 64.5277L45.5481 70.201L45.5481 114.156" stroke="#FFC700" stroke-width="3"/>
<path d="M39.4775 0L39.4775 61.6141L33.407 67.0313L33.407 109.002" stroke="#FFC700" stroke-width="3"/>
</svg>
