<svg width="147" height="117" viewBox="0 0 147 117" fill="none" xmlns="http://www.w3.org/2000/svg">
<g opacity="0.75" filter="url(#filter0_dd_64_217)">
<path d="M73.7595 81.2248L12.2602 65.033L12.1351 65H12.0056H12H11V66V86.8764V87.6557L11.7556 87.8461L73.5372 103.415L73.79 103.479L74.0418 103.411L135.159 86.9364L135.898 86.737V85.9709V66.1618V64.8645L134.644 65.1948L73.7595 81.2248Z" stroke="#00FFE0" stroke-width="2"/>
<g filter="url(#filter1_b_64_217)">
<path d="M73.2828 90.168L73.3004 90.1727L73.3029 90.1625L129 75.151V93.631L73.3029 109L17 94.4758V75H17.0051L73.2621 90.1624L73.2647 90.1728L73.2828 90.168Z" fill="#00FFD1" fill-opacity="0.34"/>
</g>
</g>
<g opacity="0.75" filter="url(#filter2_dd_64_217)">
<path d="M73.7595 38.2248L12.2602 22.033L12.1351 22H12.0056H12H11V23V43.8764V44.6557L11.7556 44.8461L73.5372 60.4149L73.79 60.4786L74.0418 60.4108L135.159 43.9364L135.898 43.737V42.9709V23.1618V21.8645L134.644 22.1948L73.7595 38.2248Z" stroke="#00FFE0" stroke-width="2"/>
<g filter="url(#filter3_b_64_217)">
<path d="M73.2828 47.168L73.3004 47.1727L73.3029 47.1625L129 32.151V50.631L73.3029 66L17 51.4758V32H17.0051L73.2621 47.1624L73.2647 47.1728L73.2828 47.168Z" fill="#00FFD1" fill-opacity="0.34"/>
</g>
</g>
<defs>
<filter id="filter0_dd_64_217" x="0" y="43.5671" width="146.898" height="73.4329" filterUnits="userSpaceOnUse" color-interpolation-filters="sRGB">
<feFlood flood-opacity="0" result="BackgroundImageFix"/>
<feColorMatrix in="SourceAlpha" type="matrix" values="0 0 0 0 0 0 0 0 0 0 0 0 0 0 0 0 0 0 127 0" result="hardAlpha"/>
<feOffset dy="-10"/>
<feGaussianBlur stdDeviation="5"/>
<feComposite in2="hardAlpha" operator="out"/>
<feColorMatrix type="matrix" values="0 0 0 0 0 0 0 0 0 0.94 0 0 0 0 1 0 0 0 0.5 0"/>
<feBlend mode="normal" in2="BackgroundImageFix" result="effect1_dropShadow_64_217"/>
<feColorMatrix in="SourceAlpha" type="matrix" values="0 0 0 0 0 0 0 0 0 0 0 0 0 0 0 0 0 0 127 0" result="hardAlpha"/>
<feOffset dy="4"/>
<feGaussianBlur stdDeviation="2"/>
<feComposite in2="hardAlpha" operator="out"/>
<feColorMatrix type="matrix" values="0 0 0 0 0 0 0 0 0 1 0 0 0 0 0.94 0 0 0 0.25 0"/>
<feBlend mode="normal" in2="effect1_dropShadow_64_217" result="effect2_dropShadow_64_217"/>
<feBlend mode="normal" in="SourceGraphic" in2="effect2_dropShadow_64_217" result="shape"/>
</filter>
<filter id="filter1_b_64_217" x="15" y="73" width="116" height="38" filterUnits="userSpaceOnUse" color-interpolation-filters="sRGB">
<feFlood flood-opacity="0" result="BackgroundImageFix"/>
<feGaussianBlur in="BackgroundImageFix" stdDeviation="1"/>
<feComposite in2="SourceAlpha" operator="in" result="effect1_backgroundBlur_64_217"/>
<feBlend mode="normal" in="SourceGraphic" in2="effect1_backgroundBlur_64_217" result="shape"/>
</filter>
<filter id="filter2_dd_64_217" x="0" y="0.567078" width="146.898" height="73.4329" filterUnits="userSpaceOnUse" color-interpolation-filters="sRGB">
<feFlood flood-opacity="0" result="BackgroundImageFix"/>
<feColorMatrix in="SourceAlpha" type="matrix" values="0 0 0 0 0 0 0 0 0 0 0 0 0 0 0 0 0 0 127 0" result="hardAlpha"/>
<feOffset dy="-10"/>
<feGaussianBlur stdDeviation="5"/>
<feComposite in2="hardAlpha" operator="out"/>
<feColorMatrix type="matrix" values="0 0 0 0 0 0 0 0 0 1 0 0 0 0 0.88 0 0 0 0.5 0"/>
<feBlend mode="normal" in2="BackgroundImageFix" result="effect1_dropShadow_64_217"/>
<feColorMatrix in="SourceAlpha" type="matrix" values="0 0 0 0 0 0 0 0 0 0 0 0 0 0 0 0 0 0 127 0" result="hardAlpha"/>
<feOffset dy="4"/>
<feGaussianBlur stdDeviation="2"/>
<feComposite in2="hardAlpha" operator="out"/>
<feColorMatrix type="matrix" values="0 0 0 0 0 0 0 0 0 1 0 0 0 0 0.94 0 0 0 0.25 0"/>
<feBlend mode="normal" in2="effect1_dropShadow_64_217" result="effect2_dropShadow_64_217"/>
<feBlend mode="normal" in="SourceGraphic" in2="effect2_dropShadow_64_217" result="shape"/>
</filter>
<filter id="filter3_b_64_217" x="15" y="30" width="116" height="38" filterUnits="userSpaceOnUse" color-interpolation-filters="sRGB">
<feFlood flood-opacity="0" result="BackgroundImageFix"/>
<feGaussianBlur in="BackgroundImageFix" stdDeviation="1"/>
<feComposite in2="SourceAlpha" operator="in" result="effect1_backgroundBlur_64_217"/>
<feBlend mode="normal" in="SourceGraphic" in2="effect1_backgroundBlur_64_217" result="shape"/>
</filter>
</defs>
</svg>
