<svg width="74" height="116" viewBox="0 0 74 116" fill="none" xmlns="http://www.w3.org/2000/svg">
<path d="M14.0005 82.0002L13.8828 109.974" stroke="#FFC700" stroke-width="3"/>
<path d="M27.0005 73.0002L72.2906 73.0002" stroke="#FFC700" stroke-width="3"/>
<path d="M8.00051 79.0003L7.81329 104.201" stroke="#FFC700" stroke-width="3"/>
<path d="M23.5005 67.6053L58.085 67.6054" stroke="#FFC700" stroke-width="3"/>
<path d="M2.50049 75.0002L1.62988 98.3737" stroke="#FFC700" stroke-width="3"/>
<path d="M20.5005 61.5002L51.9014 61.7784" stroke="#FFC700" stroke-width="3"/>
<path d="M20.0005 85.0002L20.0093 115.854" stroke="#FFC700" stroke-width="3"/>
<path d="M28.0005 79.0002L73.2906 79.0002" stroke="#FFC700" stroke-width="3"/>
<path d="M14 32.5002L14 6.0002" stroke="#FFC700" stroke-width="3"/>
<path d="M27 42.0002L63.8735 42.2961" stroke="#FFC700" stroke-width="3"/>
<path d="M7.53271 36.0001L8 12" stroke="#FFC700" stroke-width="3"/>
<path d="M23 48.0687L57.8042 48.0687" stroke="#FFC700" stroke-width="3"/>
<path d="M2 40L2.00049 18" stroke="#FFC700" stroke-width="3"/>
<path d="M20 54.0002L65.2901 54.0002" stroke="#FFC700" stroke-width="3"/>
<path d="M20.5 30.0002L20.5 0" stroke="#FFC700" stroke-width="3"/>
<path d="M28 36.0002L73.2901 36.0002" stroke="#FFC700" stroke-width="3"/>
<path d="M29 36.5L20 29.0278" stroke="#FFC700" stroke-width="3"/>
<path d="M28 42.5002L13.5 31.5002" stroke="#FFC700" stroke-width="3"/>
<path d="M24 48.0002L7 35.0002" stroke="#FFC700" stroke-width="3"/>
<path d="M21 54.0002L1.5 39.0002" stroke="#FFC700" stroke-width="3"/>
<path d="M29.0005 78.5L19.5005 86" stroke="#FFC700" stroke-width="3"/>
<path d="M28.0005 72.5001L13.5005 83" stroke="#FFC700" stroke-width="3"/>
<path d="M24.5005 67.2303L7.50049 80.2303" stroke="#FFC700" stroke-width="3"/>
<path d="M21.5005 61.2303L2.00049 76.2303" stroke="#FFC700" stroke-width="3"/>
</svg>
